<svg version="1.2" xmlns="http://www.w3.org/2000/svg" viewBox="0 0 18 16" width="18" height="16"><style>.a{fill:#f81ac5}</style><path fill-rule="evenodd" class="a" d="m0 2.9q0-0.2 0.2-0.4 0.1-0.1 0.4-0.1h0.5c2.5 0 4.3 1.4 5.5 2.7 0.6 0.6 1 1.2 1.3 1.7 0.3-0.5 0.7-1.1 1.2-1.7 1.2-1.3 3-2.7 5.5-2.7v-1.7q0-0.1 0.1-0.1 0-0.1 0.1-0.1 0.1-0.1 0.1-0.1 0.1 0.1 0.2 0.1l2.6 2.2c0.2 0.1 0.2 0.3 0 0.5l-2.6 2.2q-0.1 0-0.2 0 0 0-0.1 0-0.1 0-0.1-0.1-0.1-0.1-0.1-0.2v-1.6c-2 0-3.5 1.1-4.6 2.3q-0.9 1-1.5 2.2 0.6 1.2 1.5 2.2c1.1 1.2 2.6 2.3 4.6 2.3v-1.6q0-0.1 0.1-0.2 0-0.1 0.1-0.1 0.1 0 0.1 0 0.1 0 0.2 0l2.6 2.2c0.2 0.2 0.2 0.4 0 0.5l-2.6 2.2q-0.1 0-0.2 0.1 0 0-0.1-0.1-0.1 0-0.1-0.1-0.1 0-0.1-0.1v-1.7c-2.5 0-4.3-1.4-5.5-2.7q-0.7-0.8-1.2-1.7c-0.3 0.5-0.7 1.1-1.3 1.7-1.2 1.3-3 2.7-5.5 2.7h-0.5q-0.3 0-0.4-0.1-0.2-0.2-0.2-0.4 0-0.3 0.2-0.4 0.1-0.2 0.4-0.2h0.5c2 0 3.6-1.1 4.7-2.3q0.8-1 1.4-2.2-0.6-1.2-1.4-2.2c-1.1-1.2-2.7-2.3-4.7-2.3h-0.5q-0.3 0-0.4-0.2-0.2-0.1-0.2-0.4z"/></svg>